# xmcd
#
# Track frame offsets: 
#        182
#        16447
#        37922
#        54770
#        84532
#        104655
#        122262
#        139055
#        161545
#        173240
#
# Disc length: 2529 seconds
#
# Revision: 0
# Processed by: cddbd v1.5.1PL0 Copyright (c) Steve Scherf et al.
# Submitted via: ExactAudioCopy v0.95b3
#
DISCID=7409df0a
DTITLE=Gato Gordo - Gatoo Gordo Vol.1
DYEAR=1994
DGENRE=Blues
TTITLE0=Apapachame
TTITLE1=Got My Mojo Working
TTITLE2=Sin Nada que Hacer
TTITLE3=Playing a Loosing Game
TTITLE4=Peter Gun
TTITLE5=Salte de Mi Vida
TTITLE6=3/4 de Blues
TTITLE7=Dale Dale
TTITLE8=El Boogie del Gato
TTITLE9=Como Tocas Blues
EXTD=
EXTT0=
EXTT1=
EXTT2=
EXTT3=
EXTT4=
EXTT5=
EXTT6=
EXTT7=
EXTT8=
EXTT9=
PLAYORDER=
